# xmcd CD database file
#
# Track frame offsets:
#	182
#	15562
#	28445
#	55617
#	69492
#	85430
#	106882
#	116520
#	143260
#	174182
#	202137
#	216520
#	230922
#	247375
#
# Disc length: 3517 seconds
#
# Revision: 0
# Processed by: cddbd v1.5.1PL0 Copyright (c) Steve Scherf et al.
# Submitted via: CDex 1.60beta1
#
DISCID=cd0dbb0e
DTITLE=Serge Chaloff - Complete [CD2]
DYEAR=1993
DGENRE=Jazz
TTITLE0=You Brought A New Kind Of Love
TTITLE1=Zdot
TTITLE2=Oh! Baby
TTITLE3=Live Is Just Around The Corner
TTITLE4=Easy Street
TTITLE5=All I Do Is Dream Of You
TTITLE6=Sherry
TTITLE7=Slam
TTITLE8=Let's Jump (Alt)
TTITLE9=Let's Jump
TTITLE10=A Salute To Tiny (Alt)
TTITLE11=A Salute To Tiny
TTITLE12=Eenie Meenie Minor Mode (Alt)
TTITLE13=Eenie Meenie Minor Mode
EXTD=YEAR: 1993
EXTT0=
EXTT1=
EXTT2=
EXTT3=
EXTT4=
EXTT5=
EXTT6=
EXTT7=
EXTT8=
EXTT9=
EXTT10=
EXTT11=
EXTT12=
EXTT13=
PLAYORDER=
